HIERARCHY
ROOT SpineBase
{
  OFFSET 0.000000 0.000000 0.000000
  CHANNELS 6 Xposition Yposition Zposition Zrotation Xrotation Yrotation
  JOINT SpineMid
  {
    OFFSET -0.000000 32.634945 -0.000000
    CHANNELS 3 Zrotation Xrotation Yrotation
    JOINT SpineShoulder
    {
      OFFSET -0.177769 24.319913 -0.746569
      CHANNELS 3 Zrotation Xrotation Yrotation
      JOINT Neck
      {
        OFFSET -0.161253 8.081634 -0.599655
        CHANNELS 3 Zrotation Xrotation Yrotation
        JOINT Head
        {
          OFFSET 0.978153 10.522371 3.323818
          CHANNELS 3 Zrotation Xrotation Yrotation
          End Site
          {
            OFFSET 0 0 0
          }
        }
      }
      JOINT ShoulderLeft
      {
        OFFSET -14.222362 -6.401992 1.152862
        CHANNELS 3 Zrotation Xrotation Yrotation
        JOINT ElbowLeft
        {
          OFFSET -5.152389 -23.594046 6.501711
          CHANNELS 3 Zrotation Xrotation Yrotation
          JOINT WristLeft
          {
            OFFSET 3.416160 -23.712077 7.206890
            CHANNELS 3 Zrotation Xrotation Yrotation
            JOINT HandLeft
            {
              OFFSET 0.010363 -3.755922 1.642992
              CHANNELS 3 Zrotation Xrotation Yrotation
              JOINT HandTipLeft
              {
                OFFSET -0.066111 -4.471294 -0.728514
                CHANNELS 3 Zrotation Xrotation Yrotation
                End Site
                {
                  OFFSET 0 0 0
                }
              }
              JOINT ThumbLeft
              {
                OFFSET 0.117141 0.896060 -1.630883
                CHANNELS 3 Zrotation Xrotation Yrotation
                End Site
                {
                  OFFSET 0 0 0
                }
              }
            }
          }
        }
      }
      JOINT ShoulderRight
      {
        OFFSET 10.305176 -5.654519 -11.501593
        CHANNELS 3 Zrotation Xrotation Yrotation
        JOINT ElbowRight
        {
          OFFSET 6.706295 -24.467680 -1.351556
          CHANNELS 3 Zrotation Xrotation Yrotation
          JOINT WristRight
          {
            OFFSET 1.945701 -20.292046 0.167017
            CHANNELS 3 Zrotation Xrotation Yrotation
            JOINT HandRight
            {
              OFFSET 0.165444 -7.393167 2.563408
              CHANNELS 3 Zrotation Xrotation Yrotation
              JOINT HandTipRight
              {
                OFFSET -0.079390 -7.427338 -1.773648
                CHANNELS 3 Zrotation Xrotation Yrotation
                End Site
                {
                  OFFSET 0 0 0
                }
              }
              JOINT ThumbRight
              {
                OFFSET -2.798987 1.719440 0.522330
                CHANNELS 3 Zrotation Xrotation Yrotation
                End Site
                {
                  OFFSET 0 0 0
                }
              }
            }
          }
        }
      }
    }
  }
  JOINT HipLeft
  {
    OFFSET -5.508287 1.242447 -0.902609
    CHANNELS 3 Zrotation Xrotation Yrotation
    JOINT KneeLeft
    {
      OFFSET -5.125267 -28.619821 -2.843465
      CHANNELS 3 Zrotation Xrotation Yrotation
      JOINT AnkleLeft
      {
        OFFSET -2.564588 -26.315587 -1.898665
        CHANNELS 3 Zrotation Xrotation Yrotation
        JOINT FootLeft
        {
          OFFSET -1.222354 -5.273824 1.145302
          CHANNELS 3 Zrotation Xrotation Yrotation
          End Site
          {
            OFFSET 0 0 0
          }
        }
      }
    }
  }
  JOINT HipRight
  {
    OFFSET 3.956144 2.024068 -5.671131
    CHANNELS 3 Zrotation Xrotation Yrotation
    JOINT KneeRight
    {
      OFFSET -0.919766 -26.123254 -6.761076
      CHANNELS 3 Zrotation Xrotation Yrotation
      JOINT AnkleRight
      {
        OFFSET -1.388200 -27.700781 -4.108287
        CHANNELS 3 Zrotation Xrotation Yrotation
        JOINT FootRight
        {
          OFFSET -6.879168 -0.849897 -13.746133
          CHANNELS 3 Zrotation Xrotation Yrotation
          End Site
          {
            OFFSET 0 0 0
          }
        }
      }
    }
  }
}
MOTION
Frames: 6
Frame Time: 0.033333
58.619351 59.535456 252.778473 0.000000 -0.000000 26.740616 0.000000 0.000000 -26.740616 -0.000000 0.000000 0.000000 -0.000000 0.000000 0.000000 0.000000 0.000000 0.000000 -0.000000 0.000000 0.000000 -0.000000 0.000000 0.000000 -0.000000 0.000000 0.000000 -0.000000 0.000000 0.000000 0.000000 0.000000 0.000000 0.000000 0.000000 0.000000 -0.000000 0.000000 0.000000 -0.000000 0.000000 0.000000 -0.000000 0.000000 0.000000 -0.000000 0.000000 0.000000 0.000000 0.000000 0.000000 0.000000 0.000000 0.000000 0.000000 0.000000 -26.740616 -0.000000 0.000000 0.000000 -0.000000 0.000000 0.000000 0.000000 0.000000 0.000000 0.000000 0.000000 -26.740616 -0.000000 0.000000 0.000000 -0.000000 0.000000 0.000000 0.000000 0.000000 0.000000
58.616908 59.525245 252.803167 0.058474 0.037913 26.710216 -0.069276 -0.007584 -26.710240 -0.000000 0.000000 0.000000 -0.000000 0.000000 0.000000 0.000000 0.000000 0.000000 -0.000000 0.000000 0.000000 -0.000000 0.000000 0.000000 -1.708726 2.861683 -0.704660 1.745920 -2.839155 0.790613 0.000000 0.000000 0.000000 0.000000 0.000000 0.000000 -0.000000 0.000000 0.000000 0.036821 -2.315846 -0.220994 -0.027048 1.211666 0.202453 0.611266 -3.666581 -0.065249 0.000000 0.000000 0.000000 0.000000 0.000000 0.000000 -0.069276 -0.007584 -26.710240 -0.000000 0.000000 0.000000 -0.441629 -0.795100 0.085113 0.000000 0.000000 0.000000 -0.069276 -0.007584 -26.710240 -0.000000 0.000000 0.000000 1.898998 -3.719992 -1.569579 0.000000 0.000000 0.000000
58.608090 59.519780 252.829535 0.108190 0.068380 26.670673 -0.127371 -0.012542 -26.670752 -0.000000 0.000000 0.000000 -0.000000 0.000000 0.000000 0.000000 0.000000 0.000000 -0.000000 0.000000 0.000000 -0.000000 0.000000 0.000000 -2.643692 4.971367 -1.048094 2.856489 -5.867797 1.290630 0.000000 0.000000 0.000000 0.000000 0.000000 0.000000 -0.000000 0.000000 0.000000 0.017027 -4.427533 -0.423804 0.084252 2.077128 0.406679 1.052472 -6.637871 -0.127452 0.000000 0.000000 0.000000 0.000000 0.000000 0.000000 -0.127371 -0.012542 -26.670752 -0.000000 0.000000 0.000000 -0.848194 -1.466899 0.144302 0.000000 0.000000 0.000000 -0.127371 -0.012542 -26.670752 -0.000000 0.000000 0.000000 4.107071 -8.357445 -3.412299 0.000000 0.000000 0.000000
58.592897 59.519061 252.857575 0.149153 0.091406 26.622005 -0.174300 -0.014880 -26.622147 -0.000000 0.000000 0.000000 -0.000000 0.000000 0.000000 0.000000 0.000000 0.000000 -0.000000 0.000000 0.000000 -0.796330 -0.584488 -0.330122 -2.083427 6.898758 -0.740322 2.934220 -7.127197 1.431360 0.000000 0.000000 0.000000 0.000000 0.000000 0.000000 0.192614 -1.041033 -0.294244 -0.223963 -5.277580 -0.309760 0.339723 2.584363 0.603019 1.319646 -8.913256 -0.199427 0.000000 0.000000 0.000000 0.000000 0.000000 0.000000 -0.174300 -0.014880 -26.622147 -0.000000 0.000000 0.000000 -1.218647 -2.011370 0.179061 0.000000 0.000000 0.000000 -0.174300 -0.014880 -26.622147 -0.000000 0.000000 0.000000 6.468621 -13.718502 -5.425613 0.000000 0.000000 0.000000
58.571329 59.523089 252.887290 0.181370 0.106995 26.564215 -0.210072 -0.014591 -26.564411 -0.000000 0.000000 0.000000 -0.000000 0.000000 0.000000 0.000000 0.000000 0.000000 -0.000000 0.000000 0.000000 -1.207245 -0.557809 -0.453191 -1.160987 7.488185 -0.405746 2.430154 -6.897538 1.159941 0.000000 0.000000 0.000000 0.000000 0.000000 0.000000 0.305588 -1.399109 -0.396623 -0.448982 -6.575728 -0.368671 0.743069 2.726978 0.785193 1.412750 -10.513907 -0.289358 0.000000 0.000000 0.000000 0.000000 0.000000 0.000000 -0.210072 -0.014591 -26.564411 -0.000000 0.000000 0.000000 -1.552000 -2.425355 0.190831 0.000000 0.000000 0.000000 -0.210072 -0.014591 -26.564411 -0.000000 0.000000 0.000000 8.653840 -19.102852 -7.400048 0.000000 0.000000 0.000000
58.543386 59.531863 252.918677 0.204843 0.115147 26.497287 -0.234699 -0.011659 -26.497517 -0.000000 0.000000 0.000000 -0.000000 0.000000 0.000000 0.000000 0.000000 0.000000 0.816698 0.529081 0.106047 -2.509199 -0.943861 -0.710213 0.561993 7.250816 0.191070 0.344683 -6.415349 0.547989 0.000000 0.000000 0.000000 0.000000 0.000000 0.000000 0.443014 -1.762993 -0.500800 -0.749475 -7.623336 -0.404367 1.295506 2.503713 0.950673 1.335578 -11.472262 -0.400464 0.000000 0.000000 0.000000 0.000000 0.000000 0.000000 -0.234699 -0.011659 -26.497517 -0.000000 0.000000 0.000000 -1.847320 -2.706506 0.180964 0.000000 0.000000 0.000000 -0.234699 -0.011659 -26.497517 -0.000000 0.000000 0.000000 10.215891 -23.314361 -9.065084 0.000000 0.000000 0.000000
